<svg xmlns="http://www.svg.org/2000/svg" viewBox="0 0 512 512" width="512" height="512">
  <rect width="512" height="512" rx="128" fill="#a3f69c" />
  <path d="M333.3 194.85l-55.04-33.07a21.3 21.3 0 0 0-21.97 0L200 194.85V163.1a21.3 21.3 0 0 0-21.97 0L125.3 194.85v251.1c0 11.52 8.1 21.12 19.2 2.1l170.6 104.1c6.4 3.84 14.93 3.84 21.33 0l170.67-104.1c11.1-6.6 19.2-18.35 19.2-29.87V194.85zm-192 310.2L96 413.92V207.57l96 58.55v134.4zm21.33-134.4l96-58.56v134.4l-96 58.57v-134.4z" fill="#0d631b" transform="scale(1.2) translate(16, 16)" />
</svg>
